<svg width="30" height="30" viewBox="0 0 30 30" fill="none" xmlns="http://www.w3.org/2000/svg">
<path d="M4.875 11.7857C4.875 6.10507 9.40812 1.5 15 1.5C20.5919 1.5 25.125 6.10507 25.125 11.7857C25.125 15.3631 26.4635 17.834 27.4546 19.1734C27.8917 19.764 27.7245 20.692 27.0421 20.9646C24.4485 22.001 18.9358 24 15 24C11.0642 24 5.55153 22.001 2.95786 20.9646C2.27555 20.692 2.10834 19.764 2.54541 19.1734C3.53655 17.834 4.875 15.3631 4.875 11.7857Z" fill="url(#paint0_radial_525_2072)"/>
<path fill-rule="evenodd" clip-rule="evenodd" d="M8.25 22.5C8.25 26.25 11.4731 28.5 15 28.5C18.5269 28.5 21.75 26.25 21.75 22.5C19.5 23.25 17.2721 24 15 24C12.7279 24 10.5 23.25 8.25 22.5Z" fill="url(#paint1_radial_525_2072)"/>
<defs>
<radialGradient id="paint0_radial_525_2072" cx="0" cy="0" r="1" gradientUnits="userSpaceOnUse" gradientTransform="translate(17 5) rotate(104.859) scale(25.3476 30.4171)">
<stop stop-color="#E9AA96"/>
<stop offset="0.489578" stop-color="#C185A2"/>
<stop offset="0.956142" stop-color="#6962AD"/>
</radialGradient>
<radialGradient id="paint1_radial_525_2072" cx="0" cy="0" r="1" gradientUnits="userSpaceOnUse" gradientTransform="translate(17 5) rotate(104.859) scale(25.3476 30.4171)">
<stop stop-color="#E9AA96"/>
<stop offset="0.489578" stop-color="#C185A2"/>
<stop offset="0.956142" stop-color="#6962AD"/>
</radialGradient>
</defs>
</svg>
