<svg width="168" height="205" viewBox="0 0 168 205" fill="none" xmlns="http://www.w3.org/2000/svg">
<path d="M165.5 5.00006C166.881 5.00006 168 3.88077 168 2.50006C168 1.11935 166.881 6.10352e-05 165.5 6.10352e-05V5.00006ZM23.7498 194.967L25.2123 192.939L23.7498 194.967ZM34.9625 199.972L32.525 198.214L29.5999 202.269L32.0375 204.028L34.9625 199.972ZM27.6498 194.698L25.2123 192.939L22.2872 196.995L24.7248 198.753L27.6498 194.698ZM25.2123 192.939C22.1385 190.722 19.3761 188.172 16.9598 185.358L13.166 188.615C15.8371 191.726 18.8905 194.544 22.2872 196.995L25.2123 192.939ZM6.82135 165.544C5.95217 161.938 5.5 158.206 5.5 154.416H0.5C0.5 158.604 0.999725 162.729 1.96055 166.716L6.82135 165.544ZM5.5 154.416V145.923H0.5V154.416H5.5ZM5.5 128.937V111.951H0.5V128.937H5.5ZM5.5 94.9649V77.9789H0.5V94.9649H5.5ZM5.5 60.993V52.5001H0.5V60.993H5.5ZM5.5 52.5001C5.5 49.3246 5.81126 46.2242 6.40417 43.2271L1.49923 42.2568C0.843437 45.5717 0.5 48.997 0.5 52.5001H5.5ZM13.4991 26.1101C16.9678 20.9291 21.429 16.4678 26.61 12.9992L23.8284 8.84437C18.1043 12.6766 13.1765 17.6044 9.3443 23.3285L13.4991 26.1101ZM43.7271 5.90423C46.7242 5.31132 49.8245 5.00006 53 5.00006V6.10352e-05C49.497 6.10352e-05 46.0717 0.343498 42.7567 0.999295L43.7271 5.90423ZM53 5.00006H60.0312V6.10352e-05H53V5.00006ZM74.0938 5.00006H88.1562V6.10352e-05H74.0938V5.00006ZM102.219 5.00006H116.281V6.10352e-05H102.219V5.00006ZM130.344 5.00006H144.406V6.10352e-05H130.344V5.00006ZM158.469 5.00006H165.5V6.10352e-05H158.469V5.00006Z" fill="url(#paint0_linear_478_1524)"/>
<defs>
<linearGradient id="paint0_linear_478_1524" x1="268" y1="233" x2="-65.4999" y2="-128" gradientUnits="userSpaceOnUse">
<stop offset="0.0324261" stop-color="#6962AD"/>
<stop offset="0.465" stop-color="#C185A2"/>
<stop offset="1" stop-color="#E9AA96"/>
</linearGradient>
</defs>
</svg>
