<svg width="46" height="46" viewBox="0 0 46 46" fill="none" xmlns="http://www.w3.org/2000/svg">
<path d="M7.475 18.0714C7.475 9.3611 14.4258 2.29999 23 2.29999C31.5742 2.29999 38.525 9.3611 38.525 18.0714C38.525 24.217 41.1012 28.2331 42.6182 30.0653C43.0868 30.6313 42.9284 31.5494 42.2486 31.8283C38.7124 33.2796 29.4676 36.8 23 36.8C16.5324 36.8 7.2876 33.2796 3.7514 31.8283C3.07165 31.5494 2.91318 30.6313 3.38178 30.0653C4.89886 28.2331 7.475 24.217 7.475 18.0714Z" fill="#6962AD"/>
<path fill-rule="evenodd" clip-rule="evenodd" d="M12.65 34.5C12.65 40.25 17.5921 43.7 23 43.7C28.4079 43.7 33.35 40.25 33.35 34.5C29.9 35.65 26.4839 36.8 23 36.8C19.5161 36.8 16.1 35.65 12.65 34.5Z" fill="#6962AD"/>
</svg>
