<svg width="182" height="127" viewBox="0 0 182 127" fill="none" xmlns="http://www.w3.org/2000/svg">
<path d="M76 112.5C76 104.492 82.4919 98 90.5 98C98.5081 98 105 104.492 105 112.5C105 120.508 98.5081 127 90.5 127C82.4919 127 76 120.508 76 112.5Z" fill="url(#paint0_linear_796_1239)"/>
<path d="M3 0.5C1.61929 0.5 0.5 1.61929 0.5 3C0.5 4.38071 1.61929 5.5 3 5.5V0.5ZM3 5.5H10.3V0.5H3V5.5ZM24.9 5.5H39.5V0.5H24.9V5.5ZM54.1 5.5H68.7V0.5H54.1V5.5ZM83.3 5.5H97.9V0.5H83.3V5.5ZM112.5 5.5H127.1V0.5H112.5V5.5ZM141.7 5.5H149V0.5H141.7V5.5ZM149 5.5C152.733 5.5 156.287 6.24257 159.526 7.58573L161.441 2.9671C157.606 1.3766 153.402 0.5 149 0.5V5.5ZM174.414 22.474C175.757 25.713 176.5 29.2666 176.5 33H181.5C181.5 28.5979 180.623 24.3942 179.033 20.5587L174.414 22.474ZM176.5 33V39.125H181.5V33H176.5ZM176.5 51.375V63.625H181.5V51.375H176.5ZM176.5 75.875V82H181.5V75.875H176.5ZM176.5 82C176.5 85.7334 175.757 89.287 174.414 92.526L179.033 94.4413C180.623 90.6058 181.5 86.4021 181.5 82H176.5ZM159.526 107.414C156.287 108.757 152.733 109.5 149 109.5V114.5C153.402 114.5 157.606 113.623 161.441 112.033L159.526 107.414ZM149 109.5H141.969V114.5H149V109.5ZM127.906 109.5H113.844V114.5H127.906V109.5ZM99.7812 109.5H92.75V114.5H99.7812V109.5Z" fill="url(#paint1_linear_796_1239)"/>
<defs>
<linearGradient id="paint0_linear_796_1239" x1="62.2073" y1="152.817" x2="87.6707" y2="109.317" gradientUnits="userSpaceOnUse">
<stop stop-color="#E9AA96"/>
<stop offset="1" stop-color="#C1949E"/>
</linearGradient>
<linearGradient id="paint1_linear_796_1239" x1="70.5001" y1="3" x2="70.5001" y2="164" gradientUnits="userSpaceOnUse">
<stop stop-color="#6962AD"/>
<stop offset="1" stop-color="#E9AA96"/>
</linearGradient>
</defs>
</svg>
