<svg width="64" height="64" viewBox="0 0 64 64" fill="none" xmlns="http://www.w3.org/2000/svg">
<rect x="15.606" y="2.63128" width="21.25" height="21.25" rx="3" transform="rotate(16.1131 15.606 2.63128)" fill="#C78BA1"/>
<path d="M38.1217 21.6672C37.5881 20.7 37.9395 19.4834 38.9067 18.9499L48.5608 13.6234C49.5279 13.0898 50.7445 13.4412 51.2781 14.4084L56.6045 24.0625C57.1381 25.0296 56.7867 26.2462 55.8196 26.7798L46.1655 32.1063C45.1983 32.6399 43.9817 32.2884 43.4481 31.3213L38.1217 21.6672Z" fill="#C78BA1"/>
<rect x="33.0272" y="34.2067" width="21.25" height="21.25" rx="3" transform="rotate(16.1131 33.0272 34.2067)" fill="#C78BA1"/>
<rect x="8.52893" y="27.1295" width="21.25" height="21.25" rx="3" transform="rotate(16.1131 8.52893 27.1295)" fill="#C78BA1"/>
</svg>
