<svg width="59" height="58" viewBox="0 0 59 58" fill="none" xmlns="http://www.w3.org/2000/svg">
<path fill-rule="evenodd" clip-rule="evenodd" d="M11.72 51.04C7.85398 51.04 4.71997 47.906 4.71997 44.04V12.76V9.63999C4.71997 6.87857 6.95855 4.63999 9.71997 4.63999H49.28C52.0414 4.63999 54.28 6.87857 54.28 9.63999V12.76V36.6291C54.28 38.0489 53.6764 39.4018 52.6198 40.3501L42.135 49.761C41.2175 50.5845 40.028 51.04 38.7952 51.04H11.72ZM39.53 41.54C39.53 38.7786 41.7685 36.54 44.53 36.54H50.1C51.7568 36.54 53.1 35.1968 53.1 33.54V15.6C53.1 13.3909 51.3091 11.6 49.1 11.6H9.89997C7.69083 11.6 5.89997 13.3909 5.89997 15.6V43.88C5.89997 47.1937 8.58626 49.88 11.9 49.88H36.53C38.1868 49.88 39.53 48.5368 39.53 46.88V41.54Z" fill="#363636"/>
<path d="M12.98 4.05999H17.11V3.80499C17.11 2.66452 16.1854 1.73999 15.045 1.73999C13.9045 1.73999 12.98 2.66452 12.98 3.80499V4.05999Z" fill="#363636"/>
<path d="M40.12 4.05999H44.25V3.76999C44.25 2.64885 43.3254 1.73999 42.185 1.73999C41.0445 1.73999 40.12 2.64885 40.12 3.76999V4.05999Z" fill="#363636"/>
<path fill-rule="evenodd" clip-rule="evenodd" d="M11.72 51.04C7.85398 51.04 4.71997 47.906 4.71997 44.04V12.76V9.63999C4.71997 6.87857 6.95855 4.63999 9.71997 4.63999H49.28C52.0414 4.63999 54.28 6.87857 54.28 9.63999V12.76V36.6291C54.28 38.0489 53.6764 39.4018 52.6198 40.3501L42.135 49.761C41.2175 50.5845 40.028 51.04 38.7952 51.04H11.72ZM39.53 41.54C39.53 38.7786 41.7685 36.54 44.53 36.54H50.1C51.7568 36.54 53.1 35.1968 53.1 33.54V15.6C53.1 13.3909 51.3091 11.6 49.1 11.6H9.89997C7.69083 11.6 5.89997 13.3909 5.89997 15.6V43.88C5.89997 47.1937 8.58626 49.88 11.9 49.88H36.53C38.1868 49.88 39.53 48.5368 39.53 46.88V41.54Z" stroke="#363636" stroke-linecap="square"/>
<path d="M12.98 4.05999H17.11V3.80499C17.11 2.66452 16.1854 1.73999 15.045 1.73999C13.9045 1.73999 12.98 2.66452 12.98 3.80499V4.05999Z" stroke="#363636" stroke-linecap="square"/>
<path d="M40.12 4.05999H44.25V3.76999C44.25 2.64885 43.3254 1.73999 42.185 1.73999C41.0445 1.73999 40.12 2.64885 40.12 3.76999V4.05999Z" stroke="#363636" stroke-linecap="square"/>
<g filter="url(#filter0_i_476_1422)">
<path d="M12.62 16.24C11.5154 16.24 10.62 17.1354 10.62 18.24V26.26C10.62 26.8123 11.0677 27.26 11.62 27.26H20.83C21.3823 27.26 21.83 26.8123 21.83 26.26V17.24C21.83 16.6877 21.3823 16.24 20.83 16.24H12.62Z" fill="url(#paint0_radial_476_1422)"/>
</g>
<path d="M24.01 36.54C23.4577 36.54 23.01 36.0923 23.01 35.54V17.24C23.01 16.6877 23.4577 16.24 24.01 16.24H34.99C35.5423 16.24 35.99 16.6877 35.99 17.24V35.54C35.99 36.0923 35.5423 36.54 34.99 36.54H24.01Z" fill="#D4D4D4"/>
<path d="M38.17 16.24C37.6177 16.24 37.17 16.6877 37.17 17.24V19.3C37.17 19.8523 37.6177 20.3 38.17 20.3H47.38C47.9323 20.3 48.38 19.8523 48.38 19.3V18.24C48.38 17.1354 47.4846 16.24 46.38 16.24H38.17Z" fill="#D4D4D4"/>
<path d="M23.01 44.24C23.01 44.7923 23.4577 45.24 24.01 45.24H29.5H33.99C35.0946 45.24 35.99 44.3446 35.99 43.24V38.7C35.99 38.1477 35.5423 37.7 34.99 37.7H29.5H24.01C23.4577 37.7 23.01 38.1477 23.01 38.7V44.24Z" fill="#D4D4D4"/>
<path d="M37.17 32.06C37.17 32.6123 37.6177 33.06 38.17 33.06H46.38C47.4846 33.06 48.38 32.1646 48.38 31.06V22.46C48.38 21.9077 47.9323 21.46 47.38 21.46H38.17C37.6177 21.46 37.17 21.9077 37.17 22.46V32.06Z" fill="#D4D4D4"/>
<path d="M20.83 45.24C21.3823 45.24 21.83 44.7923 21.83 44.24V29.42C21.83 28.8677 21.3823 28.42 20.83 28.42H11.62C11.0677 28.42 10.62 28.8677 10.62 29.42V43.24C10.62 44.3446 11.5154 45.24 12.62 45.24H20.83Z" fill="#D4D4D4"/>
<defs>
<filter id="filter0_i_476_1422" x="10.62" y="16.24" width="11.21" height="11.02" filterUnits="userSpaceOnUse" color-interpolation-filters="sRGB">
<feFlood flood-opacity="0" result="BackgroundImageFix"/>
<feBlend mode="normal" in="SourceGraphic" in2="BackgroundImageFix" result="shape"/>
<feColorMatrix in="SourceAlpha" type="matrix" values="0 0 0 0 0 0 0 0 0 0 0 0 0 0 0 0 0 0 127 0" result="hardAlpha"/>
<feOffset/>
<feGaussianBlur stdDeviation="0.65"/>
<feComposite in2="hardAlpha" operator="arithmetic" k2="-1" k3="1"/>
<feColorMatrix type="matrix" values="0 0 0 0 1 0 0 0 0 1 0 0 0 0 1 0 0 0 1 0"/>
<feBlend mode="normal" in2="shape" result="effect1_innerShadow_476_1422"/>
</filter>
<radialGradient id="paint0_radial_476_1422" cx="0" cy="0" r="1" gradientUnits="userSpaceOnUse" gradientTransform="translate(16.52 18.56) rotate(90) scale(12.18 11.144)">
<stop stop-color="#E9AA96"/>
<stop offset="0.470652" stop-color="#C185A2"/>
<stop offset="0.735" stop-color="#7567AB"/>
<stop offset="0.935841" stop-color="#6962AD"/>
</radialGradient>
</defs>
</svg>
